<?xml version="1.0" encoding="UTF-8" standalone="no"?>
<svg xmlns="http://www.w3.org/2000/svg" xmlns:xlink="http://www.w3.org/1999/xlink" contentStyleType="text/css" height="268px" preserveAspectRatio="none" style="width:319px;height:268px;background:#FFFFFF;" version="1.1" viewBox="0 0 319 268" width="319px" zoomAndPan="magnify"><defs/><g><rect height="26.2969" id="_title" style="stroke:#00000000;stroke-width:1.0;fill:none;" width="301" x="5" y="5"/><text fill="#000000" font-family="sans-serif" font-size="14" font-weight="bold" lengthAdjust="spacing" textLength="291" x="10" y="22.9951">Verifying Initigrity and authenticity</text><ellipse cx="86" cy="53.2969" fill="#222222" rx="10" ry="10" style="stroke:none;stroke-width:1.0;"/><g id="GlassEmpty"><rect fill="#F1F1F1" height="52.5938" rx="12.5" ry="12.5" style="stroke:#181818;stroke-width:0.5;" width="131" x="20.5" y="123.2969"/><line style="stroke:#181818;stroke-width:0.5;" x1="20.5" x2="151.5" y1="149.5938" y2="149.5938"/><text fill="#000000" font-family="sans-serif" font-size="14" lengthAdjust="spacing" textLength="85" x="43.5" y="141.292">GlassEmpty</text><text fill="#000000" font-family="sans-serif" font-size="14" lengthAdjust="spacing" textLength="111" x="25.5" y="167.5889">Contents - void</text></g><ellipse cx="156" cy="248.7969" fill="none" rx="10" ry="10" style="stroke:#222222;stroke-width:1.0;"/><ellipse cx="156.5" cy="249.2969" fill="#222222" rx="6" ry="6" style="stroke:none;stroke-width:1.0;"/><g id="GlassFull"><rect fill="#F1F1F1" height="52.5938" rx="12.5" ry="12.5" style="stroke:#181818;stroke-width:0.5;" width="81" x="186.5" y="123.2969"/><line style="stroke:#181818;stroke-width:0.5;" x1="186.5" x2="267.5" y1="149.5938" y2="149.5938"/><text fill="#000000" font-family="sans-serif" font-size="14" lengthAdjust="spacing" textLength="61" x="196.5" y="141.292">GlassFull</text><text fill="#000000" font-family="sans-serif" font-size="14" lengthAdjust="spacing" textLength="44" x="191.5" y="167.5889">Water</text></g><g id="elem_GMN2428948"><path d="M201.5,236.2969 L201.5,244.7969 L166.23,248.7969 L201.5,252.7969 L201.5,261.4297 A0,0 0 0 0 201.5,261.4297 L304.5,261.4297 A0,0 0 0 0 304.5,261.4297 L304.5,246.2969 L294.5,236.2969 L201.5,236.2969 A0,0 0 0 0 201.5,236.2969 " fill="#FEFFDD" style="stroke:#181818;stroke-width:0.5;"/><path d="M294.5,236.2969 L294.5,246.2969 L304.5,246.2969 L294.5,236.2969 " fill="#FEFFDD" style="stroke:#181818;stroke-width:0.5;"/><text fill="#000000" font-family="sans-serif" font-size="13" lengthAdjust="spacing" textLength="82" x="207.5" y="253.3638">this is a note</text></g><!--MD5=[44709b6cb2e5bac9debc8eb7cb551f69]
link *start to GlassEmpty--><g id="link_*start_GlassEmpty"><path d="M86,63.3579 C86,75.7729 86,98.6929 86,117.6699 " fill="none" id="*start-to-GlassEmpty" style="stroke:#181818;stroke-width:1.0;"/><polygon fill="#181818" points="86,122.9059,90,113.9059,86,117.9059,82,113.9059,86,122.9059" style="stroke:#181818;stroke-width:1.0;"/></g><!--MD5=[673dd27ef161e8589bb72741e0e5cd6d]
link GlassEmpty to *end--><g id="link_GlassEmpty_*end"><path d="M104.5749,176.5365 C118.5234,195.865 136.973,221.4308 147.558,236.0991 " fill="none" id="GlassEmpty-to-*end" style="stroke:#181818;stroke-width:1.0;"/><polygon fill="#181818" points="150.577,240.2825,148.5536,230.6437,147.6509,236.2281,142.0666,235.3254,150.577,240.2825" style="stroke:#181818;stroke-width:1.0;"/></g><!--MD5=[fec9eeddb67e5f124541d36a36bcfbe7]
link GlassEmpty to GlassFull--><g id="link_GlassEmpty_GlassFull"><path d="M151.543,149.7969 C161.416,149.7969 171.288,149.7969 181.161,149.7969 " fill="none" id="GlassEmpty-to-GlassFull" style="stroke:#181818;stroke-width:1.0;"/><polygon fill="#181818" points="186.324,149.7969,177.324,145.7969,181.324,149.7969,177.324,153.7969,186.324,149.7969" style="stroke:#181818;stroke-width:1.0;"/></g><!--MD5=[5327dabec88bf827043884d4c95f49e7]
link GlassFull to *end--><g id="link_GlassFull_*end"><path d="M208.16,176.5365 C194.012,195.865 175.299,221.4308 164.562,236.0991 " fill="none" id="GlassFull-to-*end" style="stroke:#181818;stroke-width:1.0;"/><polygon fill="#181818" points="161.5,240.2825,170.043,235.3817,164.4528,236.2475,163.587,230.6573,161.5,240.2825" style="stroke:#181818;stroke-width:1.0;"/></g><!--MD5=[2b31825e273b55107018718a5210989e]
@startuml
title Verifying Initigrity and authenticity
[*] - -> GlassEmpty
GlassEmpty - -> [*]
GlassEmpty : Contents - void

GlassEmpty -> GlassFull
GlassFull : Water
GlassFull - -> [*]

note right
this is a note
end note
@enduml

PlantUML version 1.2022.7beta2(Unknown compile time)
(GPL source distribution)
Java Runtime: Java(TM) SE Runtime Environment
JVM: Java HotSpot(TM) 64-Bit Server VM
Default Encoding: UTF-8
Language: en
Country: US
--></g></svg>